<?xml version="1.0" encoding="UTF-8" standalone="no"?>
<!DOCTYPE svg PUBLIC "-//W3C//DTD SVG 1.1//EN" "http://www.w3.org/Graphics/SVG/1.1/DTD/svg11.dtd">
<svg xmlns="http://www.w3.org/2000/svg" version="1.1" viewBox="0.00 0.00 1080.00 594.00">
<g stroke-width="2.00" fill="none" stroke-linecap="butt">
<path stroke="#808182" vector-effect="non-scaling-stroke" d="
  M 466.61 245.15
  Q 465.41 244.90 466.48 244.31
  Q 479.46 237.08 492.46 229.94
  C 497.63 227.10 504.93 221.24 511.01 219.17
  Q 520.69 215.88 531.25 219.21
  Q 558.36 227.77 584.95 219.31
  C 594.75 216.20 605.23 210.33 614.75 204.94
  Q 634.70 193.67 654.51 182.16
  Q 658.16 180.04 659.20 178.45
  C 661.66 174.68 658.38 168.64 653.68 168.84
  Q 651.78 168.92 648.55 170.76
  Q 624.86 184.20 601.15 197.62
  Q 592.06 202.77 587.40 204.67
  C 570.52 211.57 551.02 211.78 533.73 206.80
  Q 532.82 206.53 533.66 206.11
  C 537.44 204.24 545.22 200.65 542.64 194.85
  C 539.88 188.62 535.05 190.43 530.49 193.02
  Q 475.96 224.12 421.38 255.13
  C 410.04 261.57 396.28 258.17 389.65 246.82
  C 384.96 238.79 386.22 228.27 391.94 221.41
  Q 394.81 217.96 404.28 212.55
  Q 445.49 188.97 486.83 165.60
  C 490.13 163.74 491.63 158.85 489.23 155.75
  C 486.08 151.71 482.21 153.40 478.24 155.63
  Q 451.27 170.79 424.43 186.16
  Q 420.91 188.17 417.80 185.97
  Q 394.19 169.22 366.30 173.98
  C 359.93 175.07 351.93 177.62 344.82 179.54
  A 0.41 0.40 -6.5 0 1 344.31 179.14
  Q 344.55 171.98 344.96 164.77
  Q 346.02 146.28 357.78 133.89
  Q 361.85 129.61 373.69 121.85
  Q 395.10 107.84 416.67 94.08
  Q 427.53 87.15 433.85 84.10
  C 453.37 74.67 472.55 74.14 493.47 79.36
  Q 513.96 84.47 534.29 90.18
  C 554.89 95.96 575.23 94.60 594.25 84.21
  Q 622.01 69.05 649.28 53.07
  Q 652.44 51.22 653.34 49.99
  C 656.18 46.13 652.67 39.73 648.01 40.05
  Q 645.94 40.19 641.98 42.44
  Q 619.37 55.35 596.72 68.15
  C 581.07 76.99 569.03 81.81 551.88 80.46
  Q 545.54 79.96 532.36 76.30
  Q 503.25 68.22 494.00 66.01
  Q 458.51 57.51 426.33 73.49
  Q 420.90 76.19 409.18 83.75
  Q 384.11 99.92 359.01 116.03
  Q 340.42 127.97 334.47 149.71
  C 333.45 153.47 333.07 157.87 332.49 161.96
  C 331.48 169.18 331.39 176.33 331.05 183.54
  C 330.94 185.95 330.04 190.67 328.76 192.00
  C 318.88 202.19 311.98 212.21 308.75 226.26
  C 302.89 251.75 309.73 278.06 330.31 295.40
  C 331.88 296.73 333.76 297.29 335.31 298.41
  C 361.27 317.33 392.26 317.17 418.98 298.70
  C 420.84 297.42 423.82 296.18 426.14 293.88
  Q 441.20 278.89 445.56 258.55
  C 445.96 256.67 447.90 255.97 449.78 256.23
  Q 463.09 258.09 476.42 259.75
  C 487.89 261.18 496.53 261.09 506.76 258.17
  C 516.86 255.28 528.12 248.25 537.92 242.43
  C 543.93 238.87 541.38 230.12 535.18 230.38
  Q 533.02 230.48 529.22 232.62
  Q 521.02 237.23 512.77 241.76
  C 497.90 249.93 482.78 248.41 466.61 245.15"
/>
<path stroke="#808182" vector-effect="non-scaling-stroke" d="
  M 177.06 290.97
  C 149.80 217.42 179.67 136.58 246.44 96.82
  C 250.75 94.25 262.11 90.41 264.21 85.98
  C 266.65 80.82 261.79 73.00 259.48 68.26
  C 257.47 64.14 256.35 56.19 249.27 59.81
  C 231.40 68.96 215.58 76.96 199.40 91.16
  C 141.11 142.30 119.54 220.69 142.31 294.76
  Q 142.71 296.06 143.64 298.11
  C 145.71 302.63 145.97 305.55 152.09 303.30
  Q 159.04 300.74 165.89 297.94
  C 168.15 297.02 178.84 295.76 177.06 290.97"
/>
<path stroke="#808182" vector-effect="non-scaling-stroke" d="
  M 211.15 195.44
  C 201.61 221.71 202.13 248.99 210.48 275.51
  Q 211.00 277.14 212.19 278.34
  A 1.35 1.34 69.6 0 0 213.03 278.73
  Q 215.52 278.96 217.82 278.06
  Q 225.51 275.06 233.14 271.82
  Q 236.91 270.22 235.46 266.00
  C 220.28 221.66 242.03 168.79 284.51 148.50
  C 287.26 147.18 290.10 145.18 288.72 141.49
  Q 286.43 135.36 283.99 129.25
  Q 281.24 122.35 274.68 125.41
  Q 228.84 146.78 211.15 195.44"
/>
<path stroke="#808182" vector-effect="non-scaling-stroke" d="
  M 272.71 238.24
  C 270.94 215.37 282.08 198.97 300.54 186.95
  Q 303.33 185.13 304.12 183.74
  C 306.61 179.39 302.15 176.25 298.09 176.53
  Q 296.32 176.65 294.23 178.21
  Q 282.19 187.28 278.42 190.91
  C 260.07 208.59 254.49 234.87 264.16 258.46
  Q 264.35 258.92 264.83 258.79
  C 269.58 257.56 274.70 256.83 273.98 251.01
  Q 273.20 244.62 272.71 238.24"
/>
<path stroke="#808182" vector-effect="non-scaling-stroke" d="
  M 522.73 342.50
  L 247.98 342.50
  Q 245.78 342.50 247.41 341.03
  Q 256.09 333.17 265.48 325.18
  C 267.42 323.53 270.24 321.98 272.50 321.96
  Q 285.62 321.85 298.75 321.82
  C 307.46 321.79 307.91 309.67 298.75 309.31
  Q 291.49 309.02 268.50 309.34
  Q 264.04 309.40 261.77 311.27
  Q 252.78 318.71 224.66 343.91
  C 222.92 345.46 221.51 347.84 222.24 350.29
  Q 223.82 355.64 230.50 355.64
  Q 384.38 355.65 538.25 355.82
  C 545.49 355.83 548.33 348.40 543.29 343.46
  Q 527.87 328.34 512.65 313.00
  C 510.71 311.05 507.98 309.26 505.50 309.26
  Q 475.21 309.23 444.93 309.28
  C 440.77 309.29 437.93 309.83 437.17 314.23
  C 435.96 321.27 441.31 321.82 446.50 321.84
  Q 479.30 321.94 495.50 321.41
  Q 503.98 321.12 509.20 327.07
  Q 515.86 334.66 522.99 341.86
  Q 523.63 342.50 522.73 342.50"
/>
<path stroke="#939393" vector-effect="non-scaling-stroke" d="
  M 266.22 455.00
  L 279.74 455.00
  Q 280.22 455.00 280.22 454.51
  L 280.22 440.46
  Q 280.22 439.94 279.70 439.94
  L 266.04 439.94
  Q 265.70 439.94 265.64 439.60
  C 263.75 429.27 272.79 429.38 279.62 431.74
  Q 280.28 431.97 280.28 431.27
  L 280.28 417.26
  A 0.59 0.59 0.0 0 0 279.85 416.69
  Q 272.98 414.68 264.76 415.21
  C 250.75 416.14 246.81 426.69 247.70 439.21
  A 0.68 0.67 88.4 0 1 247.02 439.94
  L 240.53 439.93
  A 0.54 0.54 0.0 0 0 239.99 440.47
  L 239.99 454.49
  Q 239.99 455.00 240.50 455.00
  L 247.03 455.00
  Q 247.56 455.00 247.56 455.53
  L 247.56 503.53
  Q 247.56 504.00 248.03 504.00
  L 265.22 504.00
  Q 265.70 504.00 265.70 503.53
  L 265.70 455.53
  Q 265.70 455.00 266.22 455.00"
/>
<path stroke="#939393" vector-effect="non-scaling-stroke" d="
  M 367.90 462.29
  A 0.35 0.35 0.0 0 1 367.29 462.05
  L 367.29 416.12
  A 0.35 0.35 0.0 0 0 366.94 415.77
  L 349.58 415.77
  A 0.35 0.35 0.0 0 0 349.23 416.12
  L 349.23 503.65
  A 0.35 0.35 0.0 0 0 349.58 504.00
  L 366.94 504.00
  A 0.35 0.35 0.0 0 0 367.29 503.65
  L 367.29 484.46
  A 0.35 0.35 0.0 0 1 367.38 484.22
  L 373.53 477.64
  A 0.35 0.35 0.0 0 1 374.08 477.70
  L 390.22 503.83
  A 0.35 0.35 0.0 0 0 390.52 504.00
  L 410.66 504.00
  A 0.35 0.35 0.0 0 0 410.95 503.46
  L 386.15 464.93
  A 0.35 0.35 0.0 0 1 386.19 464.50
  L 409.83 439.84
  A 0.35 0.35 0.0 0 0 409.58 439.25
  L 388.88 439.25
  A 0.35 0.35 0.0 0 0 388.62 439.37
  L 367.90 462.29"
/>
<path stroke="#939393" vector-effect="non-scaling-stroke" d="
  M 162.51 419.78
  A 0.31 0.31 0.0 0 0 162.20 419.47
  L 144.54 419.47
  A 0.31 0.31 0.0 0 0 144.23 419.78
  L 144.23 503.68
  A 0.31 0.31 0.0 0 0 144.54 503.99
  L 162.20 503.99
  A 0.31 0.31 0.0 0 0 162.51 503.68
  L 162.51 419.78"
/>
<path stroke="#939393" vector-effect="non-scaling-stroke" d="
  M 676.25 437.35
  A 0.35 0.35 0.0 0 1 676.60 437.00
  L 701.42 437.00
  A 0.35 0.35 0.0 0 0 701.77 436.65
  L 701.77 420.20
  A 0.35 0.35 0.0 0 0 701.42 419.85
  L 632.77 419.85
  A 0.35 0.35 0.0 0 0 632.42 420.20
  L 632.41 436.65
  A 0.35 0.35 0.0 0 0 632.76 437.00
  L 657.53 437.00
  A 0.35 0.35 0.0 0 1 657.88 437.35
  L 657.88 504.11
  A 0.35 0.35 0.0 0 0 658.23 504.46
  L 675.90 504.45
  A 0.35 0.35 0.0 0 0 676.25 504.10
  L 676.25 437.35"
/>
<path stroke="#939393" vector-effect="non-scaling-stroke" d="
  M 599.2221 467.9947
  A 34.82 33.97 -5.1 0 0 561.5203 437.2545
  A 34.82 33.97 -5.1 0 0 529.8579 474.1853
  A 34.82 33.97 -5.1 0 0 567.5597 504.9255
  A 34.82 33.97 -5.1 0 0 599.2221 467.9947"
/>
<path stroke="#939393" vector-effect="non-scaling-stroke" d="
  M 723.76 477.44
  L 767.26 477.44
  Q 767.82 477.44 767.87 476.88
  C 768.88 464.06 765.14 448.99 753.60 441.85
  C 745.86 437.05 734.62 435.84 726.08 439.09
  C 701.28 448.52 697.79 484.27 718.75 498.97
  C 732.74 508.78 753.39 506.57 764.37 493.34
  A 0.62 0.62 0.0 0 0 764.30 492.48
  L 754.77 483.95
  A 0.60 0.59 43.9 0 0 753.95 483.96
  C 744.66 492.99 726.29 493.38 723.29 478.01
  Q 723.19 477.44 723.76 477.44"
/>
<path stroke="#939393" vector-effect="non-scaling-stroke" d="
  M 432.13 447.23
  L 432.08 439.49
  Q 432.07 438.89 431.48 438.89
  L 414.60 438.88
  A 0.66 0.66 0.0 0 0 413.94 439.54
  L 413.94 522.47
  A 0.53 0.53 0.0 0 0 414.47 523.00
  L 431.74 523.00
  A 0.36 0.36 0.0 0 0 432.10 522.64
  L 432.08 496.23
  Q 432.08 495.08 432.83 495.96
  C 437.42 501.32 443.06 504.37 450.22 504.92
  C 466.29 506.16 478.56 493.80 480.73 478.24
  C 482.69 464.15 479.23 449.74 467.12 441.83
  C 455.75 434.41 441.16 436.22 432.69 447.41
  Q 432.14 448.14 432.13 447.23"
/>
<path stroke="#939393" vector-effect="non-scaling-stroke" d="
  M 193.81 447.73
  L 193.81 439.78
  Q 193.81 439.25 193.28 439.25
  L 176.24 439.25
  Q 175.73 439.25 175.73 439.76
  L 175.73 503.49
  Q 175.73 504.00 176.24 504.00
  L 193.25 504.00
  Q 193.80 504.00 193.80 503.45
  Q 193.85 485.85 193.75 468.25
  Q 193.72 463.21 195.55 459.80
  C 199.52 452.43 211.91 453.02 215.13 460.79
  Q 216.23 463.44 216.28 470.40
  Q 216.39 487.03 216.30 503.55
  A 0.45 0.45 0.0 0 0 216.75 504.00
  L 234.23 504.00
  A 0.24 0.23 -90.0 0 0 234.46 503.76
  Q 234.47 482.90 234.40 462.00
  C 234.36 446.74 225.82 436.53 209.74 438.39
  C 202.39 439.24 199.00 442.84 194.21 447.89
  Q 193.81 448.32 193.81 447.73"
/>
<path stroke="#939393" vector-effect="non-scaling-stroke" d="
  M 507.11 450.76
  L 507.09 439.80
  Q 507.09 439.25 506.55 439.25
  L 489.47 439.25
  Q 488.94 439.25 488.94 439.78
  L 488.94 503.47
  Q 488.94 504.00 489.47 504.00
  L 506.51 504.00
  Q 507.08 504.00 507.08 503.43
  Q 507.13 492.34 507.04 481.24
  C 506.93 467.91 511.81 457.14 526.95 457.31
  A 0.55 0.55 0.0 0 0 527.51 456.76
  L 527.52 438.50
  Q 527.52 438.01 527.03 438.03
  Q 513.36 438.50 507.99 450.94
  Q 507.11 452.97 507.11 450.76"
/>
<path stroke="#939393" vector-effect="non-scaling-stroke" d="
  M 858.81 447.74
  L 858.81 439.53
  A 0.28 0.28 0.0 0 0 858.53 439.25
  L 841.24 439.25
  Q 840.74 439.25 840.74 439.76
  L 840.73 503.49
  Q 840.73 504.00 841.24 504.00
  L 858.49 504.00
  A 0.28 0.28 0.0 0 0 858.77 503.72
  Q 858.81 485.76 859.01 467.75
  C 859.11 459.53 862.55 453.75 871.75 454.88
  C 879.60 455.86 880.72 463.13 880.64 469.75
  Q 880.55 477.14 880.67 503.43
  Q 880.68 504.00 881.24 504.00
  L 898.49 504.00
  A 0.27 0.27 0.0 0 0 898.76 503.72
  Q 898.67 487.14 898.79 470.55
  Q 898.84 463.45 899.73 461.11
  C 901.89 455.43 909.48 452.87 914.88 455.74
  C 919.01 457.95 920.59 462.74 920.58 467.25
  Q 920.55 485.52 920.51 503.74
  A 0.26 0.26 0.0 0 0 920.77 504.00
  L 938.27 504.00
  A 0.36 0.36 0.0 0 0 938.63 503.64
  Q 938.64 483.10 938.70 462.75
  C 938.74 451.18 934.99 441.39 922.66 438.60
  Q 910.63 435.87 900.58 443.67
  C 899.13 444.81 897.67 446.48 896.23 447.91
  Q 895.83 448.32 895.55 447.81
  C 888.81 435.39 871.27 435.25 862.12 444.79
  Q 860.65 446.33 859.28 447.92
  Q 858.80 448.46 858.81 447.74"
/>
<path stroke="#939393" vector-effect="non-scaling-stroke" d="
  M 321.77 497.52
  L 321.79 503.27
  Q 321.79 503.75 322.27 503.75
  L 338.75 503.74
  Q 339.27 503.74 339.27 503.22
  Q 339.37 485.49 339.51 467.75
  C 339.66 448.88 331.03 439.18 312.11 438.41
  Q 298.78 437.87 286.30 443.41
  A 0.47 0.46 69.0 0 0 286.05 443.98
  L 290.30 457.00
  A 0.45 0.44 69.9 0 0 290.89 457.28
  C 300.09 453.48 322.43 449.34 321.88 466.20
  Q 321.86 466.80 321.29 466.60
  C 306.59 461.47 282.66 462.64 280.47 482.47
  C 278.80 497.50 290.79 505.94 304.65 504.90
  Q 314.41 504.17 321.28 497.32
  Q 321.76 496.84 321.77 497.52"
/>
<path stroke="#939393" vector-effect="non-scaling-stroke" d="
  M 812.89 466.56
  C 801.93 462.83 786.25 462.48 777.66 470.44
  C 769.53 477.97 769.68 493.86 779.32 500.70
  C 789.02 507.59 804.52 506.17 812.66 497.22
  Q 813.37 496.44 813.36 497.49
  L 813.30 503.27
  Q 813.30 503.75 813.77 503.75
  L 830.24 503.75
  Q 830.83 503.75 830.83 503.15
  Q 830.96 484.19 830.85 465.27
  C 830.73 444.02 816.27 437.15 797.55 438.48
  Q 787.27 439.22 777.64 443.46
  A 0.28 0.27 69.1 0 0 777.49 443.80
  L 781.73 456.78
  Q 781.94 457.42 782.56 457.17
  C 792.36 453.32 813.31 449.46 813.47 466.13
  Q 813.48 466.76 812.89 466.56"
/>
<path stroke="#808182" vector-effect="non-scaling-stroke" d="
  M 424.12 267.98
  Q 402.20 276.97 385.13 261.39
  C 366.65 244.51 371.56 215.73 393.05 204.04
  Q 400.54 199.96 408.17 196.27
  A 0.48 0.48 0.0 0 0 408.24 195.44
  C 397.97 188.28 385.87 185.28 373.15 186.05
  C 346.01 187.70 324.38 208.23 320.26 234.84
  C 316.07 261.83 331.67 286.16 356.29 296.62
  C 357.87 297.29 359.62 296.85 361.32 297.32
  Q 376.94 301.61 392.56 297.29
  C 394.29 296.81 395.80 297.21 397.52 296.55
  C 411.64 291.17 423.93 280.67 429.31 266.27
  Q 429.57 265.58 428.90 265.89
  Q 426.69 266.93 424.12 267.98"
/>
<path stroke="#939393" vector-effect="non-scaling-stroke" d="
  M 566.4487 489.2500
  A 18.26 16.94 84.0 0 0 581.3872 469.3193
  A 18.26 16.94 84.0 0 0 562.6313 452.9300
  A 18.26 16.94 84.0 0 0 547.6928 472.8607
  A 18.26 16.94 84.0 0 0 566.4487 489.2500"
/>
<path stroke="#939393" vector-effect="non-scaling-stroke" d="
  M 723.49 465.98
  L 749.93 466.02
  A 0.22 0.22 0.0 0 0 750.15 465.80
  L 750.15 465.66
  A 13.58 13.43 -89.9 0 0 736.74 452.06
  L 736.72 452.06
  A 13.58 13.43 -89.9 0 0 723.27 465.62
  L 723.27 465.76
  A 0.22 0.22 0.0 0 0 723.49 465.98"
/>
<path stroke="#939393" vector-effect="non-scaling-stroke" d="
  M 447.5000 489.5700
  A 18.36 15.78 90.0 0 0 463.2800 471.2100
  A 18.36 15.78 90.0 0 0 447.5000 452.8500
  A 18.36 15.78 90.0 0 0 431.7200 471.2100
  A 18.36 15.78 90.0 0 0 447.5000 489.5700"
/>
<path stroke="#939393" vector-effect="non-scaling-stroke" d="
  M 320.29 476.67
  C 313.78 474.64 299.25 472.98 298.00 482.49
  C 296.12 496.81 321.64 495.41 322.19 480.63
  Q 322.27 478.58 322.22 478.37
  Q 321.95 477.19 320.29 476.67"
/>
<path stroke="#939393" vector-effect="non-scaling-stroke" d="
  M 812.90 476.96
  C 805.72 474.50 790.36 472.52 789.46 483.45
  C 788.29 497.54 817.05 494.71 813.50 477.64
  Q 813.39 477.13 812.90 476.96"
/>
</g>
<path fill="#ffffff" d="
  M 0.00 0.00
  L 1080.00 0.00
  L 1080.00 594.00
  L 0.00 594.00
  L 0.00 0.00
  Z
  M 466.61 245.15
  Q 465.41 244.90 466.48 244.31
  Q 479.46 237.08 492.46 229.94
  C 497.63 227.10 504.93 221.24 511.01 219.17
  Q 520.69 215.88 531.25 219.21
  Q 558.36 227.77 584.95 219.31
  C 594.75 216.20 605.23 210.33 614.75 204.94
  Q 634.70 193.67 654.51 182.16
  Q 658.16 180.04 659.20 178.45
  C 661.66 174.68 658.38 168.64 653.68 168.84
  Q 651.78 168.92 648.55 170.76
  Q 624.86 184.20 601.15 197.62
  Q 592.06 202.77 587.40 204.67
  C 570.52 211.57 551.02 211.78 533.73 206.80
  Q 532.82 206.53 533.66 206.11
  C 537.44 204.24 545.22 200.65 542.64 194.85
  C 539.88 188.62 535.05 190.43 530.49 193.02
  Q 475.96 224.12 421.38 255.13
  C 410.04 261.57 396.28 258.17 389.65 246.82
  C 384.96 238.79 386.22 228.27 391.94 221.41
  Q 394.81 217.96 404.28 212.55
  Q 445.49 188.97 486.83 165.60
  C 490.13 163.74 491.63 158.85 489.23 155.75
  C 486.08 151.71 482.21 153.40 478.24 155.63
  Q 451.27 170.79 424.43 186.16
  Q 420.91 188.17 417.80 185.97
  Q 394.19 169.22 366.30 173.98
  C 359.93 175.07 351.93 177.62 344.82 179.54
  A 0.41 0.40 -6.5 0 1 344.31 179.14
  Q 344.55 171.98 344.96 164.77
  Q 346.02 146.28 357.78 133.89
  Q 361.85 129.61 373.69 121.85
  Q 395.10 107.84 416.67 94.08
  Q 427.53 87.15 433.85 84.10
  C 453.37 74.67 472.55 74.14 493.47 79.36
  Q 513.96 84.47 534.29 90.18
  C 554.89 95.96 575.23 94.60 594.25 84.21
  Q 622.01 69.05 649.28 53.07
  Q 652.44 51.22 653.34 49.99
  C 656.18 46.13 652.67 39.73 648.01 40.05
  Q 645.94 40.19 641.98 42.44
  Q 619.37 55.35 596.72 68.15
  C 581.07 76.99 569.03 81.81 551.88 80.46
  Q 545.54 79.96 532.36 76.30
  Q 503.25 68.22 494.00 66.01
  Q 458.51 57.51 426.33 73.49
  Q 420.90 76.19 409.18 83.75
  Q 384.11 99.92 359.01 116.03
  Q 340.42 127.97 334.47 149.71
  C 333.45 153.47 333.07 157.87 332.49 161.96
  C 331.48 169.18 331.39 176.33 331.05 183.54
  C 330.94 185.95 330.04 190.67 328.76 192.00
  C 318.88 202.19 311.98 212.21 308.75 226.26
  C 302.89 251.75 309.73 278.06 330.31 295.40
  C 331.88 296.73 333.76 297.29 335.31 298.41
  C 361.27 317.33 392.26 317.17 418.98 298.70
  C 420.84 297.42 423.82 296.18 426.14 293.88
  Q 441.20 278.89 445.56 258.55
  C 445.96 256.67 447.90 255.97 449.78 256.23
  Q 463.09 258.09 476.42 259.75
  C 487.89 261.18 496.53 261.09 506.76 258.17
  C 516.86 255.28 528.12 248.25 537.92 242.43
  C 543.93 238.87 541.38 230.12 535.18 230.38
  Q 533.02 230.48 529.22 232.62
  Q 521.02 237.23 512.77 241.76
  C 497.90 249.93 482.78 248.41 466.61 245.15
  Z
  M 177.06 290.97
  C 149.80 217.42 179.67 136.58 246.44 96.82
  C 250.75 94.25 262.11 90.41 264.21 85.98
  C 266.65 80.82 261.79 73.00 259.48 68.26
  C 257.47 64.14 256.35 56.19 249.27 59.81
  C 231.40 68.96 215.58 76.96 199.40 91.16
  C 141.11 142.30 119.54 220.69 142.31 294.76
  Q 142.71 296.06 143.64 298.11
  C 145.71 302.63 145.97 305.55 152.09 303.30
  Q 159.04 300.74 165.89 297.94
  C 168.15 297.02 178.84 295.76 177.06 290.97
  Z
  M 211.15 195.44
  C 201.61 221.71 202.13 248.99 210.48 275.51
  Q 211.00 277.14 212.19 278.34
  A 1.35 1.34 69.6 0 0 213.03 278.73
  Q 215.52 278.96 217.82 278.06
  Q 225.51 275.06 233.14 271.82
  Q 236.91 270.22 235.46 266.00
  C 220.28 221.66 242.03 168.79 284.51 148.50
  C 287.26 147.18 290.10 145.18 288.72 141.49
  Q 286.43 135.36 283.99 129.25
  Q 281.24 122.35 274.68 125.41
  Q 228.84 146.78 211.15 195.44
  Z
  M 272.71 238.24
  C 270.94 215.37 282.08 198.97 300.54 186.95
  Q 303.33 185.13 304.12 183.74
  C 306.61 179.39 302.15 176.25 298.09 176.53
  Q 296.32 176.65 294.23 178.21
  Q 282.19 187.28 278.42 190.91
  C 260.07 208.59 254.49 234.87 264.16 258.46
  Q 264.35 258.92 264.83 258.79
  C 269.58 257.56 274.70 256.83 273.98 251.01
  Q 273.20 244.62 272.71 238.24
  Z
  M 522.73 342.50
  L 247.98 342.50
  Q 245.78 342.50 247.41 341.03
  Q 256.09 333.17 265.48 325.18
  C 267.42 323.53 270.24 321.98 272.50 321.96
  Q 285.62 321.85 298.75 321.82
  C 307.46 321.79 307.91 309.67 298.75 309.31
  Q 291.49 309.02 268.50 309.34
  Q 264.04 309.40 261.77 311.27
  Q 252.78 318.71 224.66 343.91
  C 222.92 345.46 221.51 347.84 222.24 350.29
  Q 223.82 355.64 230.50 355.64
  Q 384.38 355.65 538.25 355.82
  C 545.49 355.83 548.33 348.40 543.29 343.46
  Q 527.87 328.34 512.65 313.00
  C 510.71 311.05 507.98 309.26 505.50 309.26
  Q 475.21 309.23 444.93 309.28
  C 440.77 309.29 437.93 309.83 437.17 314.23
  C 435.96 321.27 441.31 321.82 446.50 321.84
  Q 479.30 321.94 495.50 321.41
  Q 503.98 321.12 509.20 327.07
  Q 515.86 334.66 522.99 341.86
  Q 523.63 342.50 522.73 342.50
  Z
  M 266.22 455.00
  L 279.74 455.00
  Q 280.22 455.00 280.22 454.51
  L 280.22 440.46
  Q 280.22 439.94 279.70 439.94
  L 266.04 439.94
  Q 265.70 439.94 265.64 439.60
  C 263.75 429.27 272.79 429.38 279.62 431.74
  Q 280.28 431.97 280.28 431.27
  L 280.28 417.26
  A 0.59 0.59 0.0 0 0 279.85 416.69
  Q 272.98 414.68 264.76 415.21
  C 250.75 416.14 246.81 426.69 247.70 439.21
  A 0.68 0.67 88.4 0 1 247.02 439.94
  L 240.53 439.93
  A 0.54 0.54 0.0 0 0 239.99 440.47
  L 239.99 454.49
  Q 239.99 455.00 240.50 455.00
  L 247.03 455.00
  Q 247.56 455.00 247.56 455.53
  L 247.56 503.53
  Q 247.56 504.00 248.03 504.00
  L 265.22 504.00
  Q 265.70 504.00 265.70 503.53
  L 265.70 455.53
  Q 265.70 455.00 266.22 455.00
  Z
  M 367.90 462.29
  A 0.35 0.35 0.0 0 1 367.29 462.05
  L 367.29 416.12
  A 0.35 0.35 0.0 0 0 366.94 415.77
  L 349.58 415.77
  A 0.35 0.35 0.0 0 0 349.23 416.12
  L 349.23 503.65
  A 0.35 0.35 0.0 0 0 349.58 504.00
  L 366.94 504.00
  A 0.35 0.35 0.0 0 0 367.29 503.65
  L 367.29 484.46
  A 0.35 0.35 0.0 0 1 367.38 484.22
  L 373.53 477.64
  A 0.35 0.35 0.0 0 1 374.08 477.70
  L 390.22 503.83
  A 0.35 0.35 0.0 0 0 390.52 504.00
  L 410.66 504.00
  A 0.35 0.35 0.0 0 0 410.95 503.46
  L 386.15 464.93
  A 0.35 0.35 0.0 0 1 386.19 464.50
  L 409.83 439.84
  A 0.35 0.35 0.0 0 0 409.58 439.25
  L 388.88 439.25
  A 0.35 0.35 0.0 0 0 388.62 439.37
  L 367.90 462.29
  Z
  M 162.51 419.78
  A 0.31 0.31 0.0 0 0 162.20 419.47
  L 144.54 419.47
  A 0.31 0.31 0.0 0 0 144.23 419.78
  L 144.23 503.68
  A 0.31 0.31 0.0 0 0 144.54 503.99
  L 162.20 503.99
  A 0.31 0.31 0.0 0 0 162.51 503.68
  L 162.51 419.78
  Z
  M 676.25 437.35
  A 0.35 0.35 0.0 0 1 676.60 437.00
  L 701.42 437.00
  A 0.35 0.35 0.0 0 0 701.77 436.65
  L 701.77 420.20
  A 0.35 0.35 0.0 0 0 701.42 419.85
  L 632.77 419.85
  A 0.35 0.35 0.0 0 0 632.42 420.20
  L 632.41 436.65
  A 0.35 0.35 0.0 0 0 632.76 437.00
  L 657.53 437.00
  A 0.35 0.35 0.0 0 1 657.88 437.35
  L 657.88 504.11
  A 0.35 0.35 0.0 0 0 658.23 504.46
  L 675.90 504.45
  A 0.35 0.35 0.0 0 0 676.25 504.10
  L 676.25 437.35
  Z
  M 599.2221 467.9947
  A 34.82 33.97 -5.1 0 0 561.5203 437.2545
  A 34.82 33.97 -5.1 0 0 529.8579 474.1853
  A 34.82 33.97 -5.1 0 0 567.5597 504.9255
  A 34.82 33.97 -5.1 0 0 599.2221 467.9947
  Z
  M 723.76 477.44
  L 767.26 477.44
  Q 767.82 477.44 767.87 476.88
  C 768.88 464.06 765.14 448.99 753.60 441.85
  C 745.86 437.05 734.62 435.84 726.08 439.09
  C 701.28 448.52 697.79 484.27 718.75 498.97
  C 732.74 508.78 753.39 506.57 764.37 493.34
  A 0.62 0.62 0.0 0 0 764.30 492.48
  L 754.77 483.95
  A 0.60 0.59 43.9 0 0 753.95 483.96
  C 744.66 492.99 726.29 493.38 723.29 478.01
  Q 723.19 477.44 723.76 477.44
  Z
  M 432.13 447.23
  L 432.08 439.49
  Q 432.07 438.89 431.48 438.89
  L 414.60 438.88
  A 0.66 0.66 0.0 0 0 413.94 439.54
  L 413.94 522.47
  A 0.53 0.53 0.0 0 0 414.47 523.00
  L 431.74 523.00
  A 0.36 0.36 0.0 0 0 432.10 522.64
  L 432.08 496.23
  Q 432.08 495.08 432.83 495.96
  C 437.42 501.32 443.06 504.37 450.22 504.92
  C 466.29 506.16 478.56 493.80 480.73 478.24
  C 482.69 464.15 479.23 449.74 467.12 441.83
  C 455.75 434.41 441.16 436.22 432.69 447.41
  Q 432.14 448.14 432.13 447.23
  Z
  M 193.81 447.73
  L 193.81 439.78
  Q 193.81 439.25 193.28 439.25
  L 176.24 439.25
  Q 175.73 439.25 175.73 439.76
  L 175.73 503.49
  Q 175.73 504.00 176.24 504.00
  L 193.25 504.00
  Q 193.80 504.00 193.80 503.45
  Q 193.85 485.85 193.75 468.25
  Q 193.72 463.21 195.55 459.80
  C 199.52 452.43 211.91 453.02 215.13 460.79
  Q 216.23 463.44 216.28 470.40
  Q 216.39 487.03 216.30 503.55
  A 0.45 0.45 0.0 0 0 216.75 504.00
  L 234.23 504.00
  A 0.24 0.23 -90.0 0 0 234.46 503.76
  Q 234.47 482.90 234.40 462.00
  C 234.36 446.74 225.82 436.53 209.74 438.39
  C 202.39 439.24 199.00 442.84 194.21 447.89
  Q 193.81 448.32 193.81 447.73
  Z
  M 507.11 450.76
  L 507.09 439.80
  Q 507.09 439.25 506.55 439.25
  L 489.47 439.25
  Q 488.94 439.25 488.94 439.78
  L 488.94 503.47
  Q 488.94 504.00 489.47 504.00
  L 506.51 504.00
  Q 507.08 504.00 507.08 503.43
  Q 507.13 492.34 507.04 481.24
  C 506.93 467.91 511.81 457.14 526.95 457.31
  A 0.55 0.55 0.0 0 0 527.51 456.76
  L 527.52 438.50
  Q 527.52 438.01 527.03 438.03
  Q 513.36 438.50 507.99 450.94
  Q 507.11 452.97 507.11 450.76
  Z
  M 858.81 447.74
  L 858.81 439.53
  A 0.28 0.28 0.0 0 0 858.53 439.25
  L 841.24 439.25
  Q 840.74 439.25 840.74 439.76
  L 840.73 503.49
  Q 840.73 504.00 841.24 504.00
  L 858.49 504.00
  A 0.28 0.28 0.0 0 0 858.77 503.72
  Q 858.81 485.76 859.01 467.75
  C 859.11 459.53 862.55 453.75 871.75 454.88
  C 879.60 455.86 880.72 463.13 880.64 469.75
  Q 880.55 477.14 880.67 503.43
  Q 880.68 504.00 881.24 504.00
  L 898.49 504.00
  A 0.27 0.27 0.0 0 0 898.76 503.72
  Q 898.67 487.14 898.79 470.55
  Q 898.84 463.45 899.73 461.11
  C 901.89 455.43 909.48 452.87 914.88 455.74
  C 919.01 457.95 920.59 462.74 920.58 467.25
  Q 920.55 485.52 920.51 503.74
  A 0.26 0.26 0.0 0 0 920.77 504.00
  L 938.27 504.00
  A 0.36 0.36 0.0 0 0 938.63 503.64
  Q 938.64 483.10 938.70 462.75
  C 938.74 451.18 934.99 441.39 922.66 438.60
  Q 910.63 435.87 900.58 443.67
  C 899.13 444.81 897.67 446.48 896.23 447.91
  Q 895.83 448.32 895.55 447.81
  C 888.81 435.39 871.27 435.25 862.12 444.79
  Q 860.65 446.33 859.28 447.92
  Q 858.80 448.46 858.81 447.74
  Z
  M 321.77 497.52
  L 321.79 503.27
  Q 321.79 503.75 322.27 503.75
  L 338.75 503.74
  Q 339.27 503.74 339.27 503.22
  Q 339.37 485.49 339.51 467.75
  C 339.66 448.88 331.03 439.18 312.11 438.41
  Q 298.78 437.87 286.30 443.41
  A 0.47 0.46 69.0 0 0 286.05 443.98
  L 290.30 457.00
  A 0.45 0.44 69.9 0 0 290.89 457.28
  C 300.09 453.48 322.43 449.34 321.88 466.20
  Q 321.86 466.80 321.29 466.60
  C 306.59 461.47 282.66 462.64 280.47 482.47
  C 278.80 497.50 290.79 505.94 304.65 504.90
  Q 314.41 504.17 321.28 497.32
  Q 321.76 496.84 321.77 497.52
  Z
  M 812.89 466.56
  C 801.93 462.83 786.25 462.48 777.66 470.44
  C 769.53 477.97 769.68 493.86 779.32 500.70
  C 789.02 507.59 804.52 506.17 812.66 497.22
  Q 813.37 496.44 813.36 497.49
  L 813.30 503.27
  Q 813.30 503.75 813.77 503.75
  L 830.24 503.75
  Q 830.83 503.75 830.83 503.15
  Q 830.96 484.19 830.85 465.27
  C 830.73 444.02 816.27 437.15 797.55 438.48
  Q 787.27 439.22 777.64 443.46
  A 0.28 0.27 69.1 0 0 777.49 443.80
  L 781.73 456.78
  Q 781.94 457.42 782.56 457.17
  C 792.36 453.32 813.31 449.46 813.47 466.13
  Q 813.48 466.76 812.89 466.56
  Z"
/>
<path fill="#000304" d="
  M 466.61 245.15
  C 482.78 248.41 497.90 249.93 512.77 241.76
  Q 521.02 237.23 529.22 232.62
  Q 533.02 230.48 535.18 230.38
  C 541.38 230.12 543.93 238.87 537.92 242.43
  C 528.12 248.25 516.86 255.28 506.76 258.17
  C 496.53 261.09 487.89 261.18 476.42 259.75
  Q 463.09 258.09 449.78 256.23
  C 447.90 255.97 445.96 256.67 445.56 258.55
  Q 441.20 278.89 426.14 293.88
  C 423.82 296.18 420.84 297.42 418.98 298.70
  C 392.26 317.17 361.27 317.33 335.31 298.41
  C 333.76 297.29 331.88 296.73 330.31 295.40
  C 309.73 278.06 302.89 251.75 308.75 226.26
  C 311.98 212.21 318.88 202.19 328.76 192.00
  C 330.04 190.67 330.94 185.95 331.05 183.54
  C 331.39 176.33 331.48 169.18 332.49 161.96
  C 333.07 157.87 333.45 153.47 334.47 149.71
  Q 340.42 127.97 359.01 116.03
  Q 384.11 99.92 409.18 83.75
  Q 420.90 76.19 426.33 73.49
  Q 458.51 57.51 494.00 66.01
  Q 503.25 68.22 532.36 76.30
  Q 545.54 79.96 551.88 80.46
  C 569.03 81.81 581.07 76.99 596.72 68.15
  Q 619.37 55.35 641.98 42.44
  Q 645.94 40.19 648.01 40.05
  C 652.67 39.73 656.18 46.13 653.34 49.99
  Q 652.44 51.22 649.28 53.07
  Q 622.01 69.05 594.25 84.21
  C 575.23 94.60 554.89 95.96 534.29 90.18
  Q 513.96 84.47 493.47 79.36
  C 472.55 74.14 453.37 74.67 433.85 84.10
  Q 427.53 87.15 416.67 94.08
  Q 395.10 107.84 373.69 121.85
  Q 361.85 129.61 357.78 133.89
  Q 346.02 146.28 344.96 164.77
  Q 344.55 171.98 344.31 179.14
  A 0.41 0.40 -6.5 0 0 344.82 179.54
  C 351.93 177.62 359.93 175.07 366.30 173.98
  Q 394.19 169.22 417.80 185.97
  Q 420.91 188.17 424.43 186.16
  Q 451.27 170.79 478.24 155.63
  C 482.21 153.40 486.08 151.71 489.23 155.75
  C 491.63 158.85 490.13 163.74 486.83 165.60
  Q 445.49 188.97 404.28 212.55
  Q 394.81 217.96 391.94 221.41
  C 386.22 228.27 384.96 238.79 389.65 246.82
  C 396.28 258.17 410.04 261.57 421.38 255.13
  Q 475.96 224.12 530.49 193.02
  C 535.05 190.43 539.88 188.62 542.64 194.85
  C 545.22 200.65 537.44 204.24 533.66 206.11
  Q 532.82 206.53 533.73 206.80
  C 551.02 211.78 570.52 211.57 587.40 204.67
  Q 592.06 202.77 601.15 197.62
  Q 624.86 184.20 648.55 170.76
  Q 651.78 168.92 653.68 168.84
  C 658.38 168.64 661.66 174.68 659.20 178.45
  Q 658.16 180.04 654.51 182.16
  Q 634.70 193.67 614.75 204.94
  C 605.23 210.33 594.75 216.20 584.95 219.31
  Q 558.36 227.77 531.25 219.21
  Q 520.69 215.88 511.01 219.17
  C 504.93 221.24 497.63 227.10 492.46 229.94
  Q 479.46 237.08 466.48 244.31
  Q 465.41 244.90 466.61 245.15
  Z
  M 424.12 267.98
  Q 402.20 276.97 385.13 261.39
  C 366.65 244.51 371.56 215.73 393.05 204.04
  Q 400.54 199.96 408.17 196.27
  A 0.48 0.48 0.0 0 0 408.24 195.44
  C 397.97 188.28 385.87 185.28 373.15 186.05
  C 346.01 187.70 324.38 208.23 320.26 234.84
  C 316.07 261.83 331.67 286.16 356.29 296.62
  C 357.87 297.29 359.62 296.85 361.32 297.32
  Q 376.94 301.61 392.56 297.29
  C 394.29 296.81 395.80 297.21 397.52 296.55
  C 411.64 291.17 423.93 280.67 429.31 266.27
  Q 429.57 265.58 428.90 265.89
  Q 426.69 266.93 424.12 267.98
  Z"
/>
<path fill="#000304" d="
  M 246.44 96.82
  C 179.67 136.58 149.80 217.42 177.06 290.97
  C 178.84 295.76 168.15 297.02 165.89 297.94
  Q 159.04 300.74 152.09 303.30
  C 145.97 305.55 145.71 302.63 143.64 298.11
  Q 142.71 296.06 142.31 294.76
  C 119.54 220.69 141.11 142.30 199.40 91.16
  C 215.58 76.96 231.40 68.96 249.27 59.81
  C 256.35 56.19 257.47 64.14 259.48 68.26
  C 261.79 73.00 266.65 80.82 264.21 85.98
  C 262.11 90.41 250.75 94.25 246.44 96.82
  Z"
/>
<path fill="#000304" d="
  M 211.15 195.44
  Q 228.84 146.78 274.68 125.41
  Q 281.24 122.35 283.99 129.25
  Q 286.43 135.36 288.72 141.49
  C 290.10 145.18 287.26 147.18 284.51 148.50
  C 242.03 168.79 220.28 221.66 235.46 266.00
  Q 236.91 270.22 233.14 271.82
  Q 225.51 275.06 217.82 278.06
  Q 215.52 278.96 213.03 278.73
  A 1.35 1.34 69.6 0 1 212.19 278.34
  Q 211.00 277.14 210.48 275.51
  C 202.13 248.99 201.61 221.71 211.15 195.44
  Z"
/>
<path fill="#000304" d="
  M 300.54 186.95
  C 282.08 198.97 270.94 215.37 272.71 238.24
  Q 273.20 244.62 273.98 251.01
  C 274.70 256.83 269.58 257.56 264.83 258.79
  Q 264.35 258.92 264.16 258.46
  C 254.49 234.87 260.07 208.59 278.42 190.91
  Q 282.19 187.28 294.23 178.21
  Q 296.32 176.65 298.09 176.53
  C 302.15 176.25 306.61 179.39 304.12 183.74
  Q 303.33 185.13 300.54 186.95
  Z"
/>
<path fill="#ffffff" d="
  M 424.12 267.98
  Q 426.69 266.93 428.90 265.89
  Q 429.57 265.58 429.31 266.27
  C 423.93 280.67 411.64 291.17 397.52 296.55
  C 395.80 297.21 394.29 296.81 392.56 297.29
  Q 376.94 301.61 361.32 297.32
  C 359.62 296.85 357.87 297.29 356.29 296.62
  C 331.67 286.16 316.07 261.83 320.26 234.84
  C 324.38 208.23 346.01 187.70 373.15 186.05
  C 385.87 185.28 397.97 188.28 408.24 195.44
  A 0.48 0.48 0.0 0 1 408.17 196.27
  Q 400.54 199.96 393.05 204.04
  C 371.56 215.73 366.65 244.51 385.13 261.39
  Q 402.20 276.97 424.12 267.98
  Z"
/>
<path fill="#000304" d="
  M 522.73 342.50
  Q 523.63 342.50 522.99 341.86
  Q 515.86 334.66 509.20 327.07
  Q 503.98 321.12 495.50 321.41
  Q 479.30 321.94 446.50 321.84
  C 441.31 321.82 435.96 321.27 437.17 314.23
  C 437.93 309.83 440.77 309.29 444.93 309.28
  Q 475.21 309.23 505.50 309.26
  C 507.98 309.26 510.71 311.05 512.65 313.00
  Q 527.87 328.34 543.29 343.46
  C 548.33 348.40 545.49 355.83 538.25 355.82
  Q 384.38 355.65 230.50 355.64
  Q 223.82 355.64 222.24 350.29
  C 221.51 347.84 222.92 345.46 224.66 343.91
  Q 252.78 318.71 261.77 311.27
  Q 264.04 309.40 268.50 309.34
  Q 291.49 309.02 298.75 309.31
  C 307.91 309.67 307.46 321.79 298.75 321.82
  Q 285.62 321.85 272.50 321.96
  C 270.24 321.98 267.42 323.53 265.48 325.18
  Q 256.09 333.17 247.41 341.03
  Q 245.78 342.50 247.98 342.50
  L 522.73 342.50
  Z"
/>
<path fill="#272727" d="
  M 265.70 455.53
  L 265.70 503.53
  Q 265.70 504.00 265.22 504.00
  L 248.03 504.00
  Q 247.56 504.00 247.56 503.53
  L 247.56 455.53
  Q 247.56 455.00 247.03 455.00
  L 240.50 455.00
  Q 239.99 455.00 239.99 454.49
  L 239.99 440.47
  A 0.54 0.54 0.0 0 1 240.53 439.93
  L 247.02 439.94
  A 0.68 0.67 88.4 0 0 247.70 439.21
  C 246.81 426.69 250.75 416.14 264.76 415.21
  Q 272.98 414.68 279.85 416.69
  A 0.59 0.59 0.0 0 1 280.28 417.26
  L 280.28 431.27
  Q 280.28 431.97 279.62 431.74
  C 272.79 429.38 263.75 429.27 265.64 439.60
  Q 265.70 439.94 266.04 439.94
  L 279.70 439.94
  Q 280.22 439.94 280.22 440.46
  L 280.22 454.51
  Q 280.22 455.00 279.74 455.00
  L 266.22 455.00
  Q 265.70 455.00 265.70 455.53
  Z"
/>
<path fill="#272727" d="
  M 367.90 462.29
  L 388.62 439.37
  A 0.35 0.35 0.0 0 1 388.88 439.25
  L 409.58 439.25
  A 0.35 0.35 0.0 0 1 409.83 439.84
  L 386.19 464.50
  A 0.35 0.35 0.0 0 0 386.15 464.93
  L 410.95 503.46
  A 0.35 0.35 0.0 0 1 410.66 504.00
  L 390.52 504.00
  A 0.35 0.35 0.0 0 1 390.22 503.83
  L 374.08 477.70
  A 0.35 0.35 0.0 0 0 373.53 477.64
  L 367.38 484.22
  A 0.35 0.35 0.0 0 0 367.29 484.46
  L 367.29 503.65
  A 0.35 0.35 0.0 0 1 366.94 504.00
  L 349.58 504.00
  A 0.35 0.35 0.0 0 1 349.23 503.65
  L 349.23 416.12
  A 0.35 0.35 0.0 0 1 349.58 415.77
  L 366.94 415.77
  A 0.35 0.35 0.0 0 1 367.29 416.12
  L 367.29 462.05
  A 0.35 0.35 0.0 0 0 367.90 462.29
  Z"
/>
<rect fill="#272727" x="144.23" y="419.47" width="18.28" height="84.52" rx="0.31"/>
<path fill="#272727" d="
  M 676.25 437.35
  L 676.25 504.10
  A 0.35 0.35 0.0 0 1 675.90 504.45
  L 658.23 504.46
  A 0.35 0.35 0.0 0 1 657.88 504.11
  L 657.88 437.35
  A 0.35 0.35 0.0 0 0 657.53 437.00
  L 632.76 437.00
  A 0.35 0.35 0.0 0 1 632.41 436.65
  L 632.42 420.20
  A 0.35 0.35 0.0 0 1 632.77 419.85
  L 701.42 419.85
  A 0.35 0.35 0.0 0 1 701.77 420.20
  L 701.77 436.65
  A 0.35 0.35 0.0 0 1 701.42 437.00
  L 676.60 437.00
  A 0.35 0.35 0.0 0 0 676.25 437.35
  Z"
/>
<path fill="#272727" d="
  M 599.2221 467.9947
  A 34.82 33.97 -5.1 0 1 567.5597 504.9255
  A 34.82 33.97 -5.1 0 1 529.8579 474.1853
  A 34.82 33.97 -5.1 0 1 561.5203 437.2545
  A 34.82 33.97 -5.1 0 1 599.2221 467.9947
  Z
  M 566.4487 489.2500
  A 18.26 16.94 84.0 0 0 581.3872 469.3193
  A 18.26 16.94 84.0 0 0 562.6313 452.9300
  A 18.26 16.94 84.0 0 0 547.6928 472.8607
  A 18.26 16.94 84.0 0 0 566.4487 489.2500
  Z"
/>
<path fill="#272727" d="
  M 723.29 478.01
  C 726.29 493.38 744.66 492.99 753.95 483.96
  A 0.60 0.59 43.9 0 1 754.77 483.95
  L 764.30 492.48
  A 0.62 0.62 0.0 0 1 764.37 493.34
  C 753.39 506.57 732.74 508.78 718.75 498.97
  C 697.79 484.27 701.28 448.52 726.08 439.09
  C 734.62 435.84 745.86 437.05 753.60 441.85
  C 765.14 448.99 768.88 464.06 767.87 476.88
  Q 767.82 477.44 767.26 477.44
  L 723.76 477.44
  Q 723.19 477.44 723.29 478.01
  Z
  M 723.49 465.98
  L 749.93 466.02
  A 0.22 0.22 0.0 0 0 750.15 465.80
  L 750.15 465.66
  A 13.58 13.43 -89.9 0 0 736.74 452.06
  L 736.72 452.06
  A 13.58 13.43 -89.9 0 0 723.27 465.62
  L 723.27 465.76
  A 0.22 0.22 0.0 0 0 723.49 465.98
  Z"
/>
<path fill="#272727" d="
  M 432.69 447.41
  C 441.16 436.22 455.75 434.41 467.12 441.83
  C 479.23 449.74 482.69 464.15 480.73 478.24
  C 478.56 493.80 466.29 506.16 450.22 504.92
  C 443.06 504.37 437.42 501.32 432.83 495.96
  Q 432.08 495.08 432.08 496.23
  L 432.10 522.64
  A 0.36 0.36 0.0 0 1 431.74 523.00
  L 414.47 523.00
  A 0.53 0.53 0.0 0 1 413.94 522.47
  L 413.94 439.54
  A 0.66 0.66 0.0 0 1 414.60 438.88
  L 431.48 438.89
  Q 432.07 438.89 432.08 439.49
  L 432.13 447.23
  Q 432.14 448.14 432.69 447.41
  Z
  M 447.5000 489.5700
  A 18.36 15.78 90.0 0 0 463.2800 471.2100
  A 18.36 15.78 90.0 0 0 447.5000 452.8500
  A 18.36 15.78 90.0 0 0 431.7200 471.2100
  A 18.36 15.78 90.0 0 0 447.5000 489.5700
  Z"
/>
<path fill="#272727" d="
  M 194.21 447.89
  C 199.00 442.84 202.39 439.24 209.74 438.39
  C 225.82 436.53 234.36 446.74 234.40 462.00
  Q 234.47 482.90 234.46 503.76
  A 0.24 0.23 90.0 0 1 234.23 504.00
  L 216.75 504.00
  A 0.45 0.45 0.0 0 1 216.30 503.55
  Q 216.39 487.03 216.28 470.40
  Q 216.23 463.44 215.13 460.79
  C 211.91 453.02 199.52 452.43 195.55 459.80
  Q 193.72 463.21 193.75 468.25
  Q 193.85 485.85 193.80 503.45
  Q 193.80 504.00 193.25 504.00
  L 176.24 504.00
  Q 175.73 504.00 175.73 503.49
  L 175.73 439.76
  Q 175.73 439.25 176.24 439.25
  L 193.28 439.25
  Q 193.81 439.25 193.81 439.78
  L 193.81 447.73
  Q 193.81 448.32 194.21 447.89
  Z"
/>
<path fill="#272727" d="
  M 507.11 450.76
  Q 507.11 452.97 507.99 450.94
  Q 513.36 438.50 527.03 438.03
  Q 527.52 438.01 527.52 438.50
  L 527.51 456.76
  A 0.55 0.55 0.0 0 1 526.95 457.31
  C 511.81 457.14 506.93 467.91 507.04 481.24
  Q 507.13 492.34 507.08 503.43
  Q 507.08 504.00 506.51 504.00
  L 489.47 504.00
  Q 488.94 504.00 488.94 503.47
  L 488.94 439.78
  Q 488.94 439.25 489.47 439.25
  L 506.55 439.25
  Q 507.09 439.25 507.09 439.80
  L 507.11 450.76
  Z"
/>
<path fill="#272727" d="
  M 859.28 447.92
  Q 860.65 446.33 862.12 444.79
  C 871.27 435.25 888.81 435.39 895.55 447.81
  Q 895.83 448.32 896.23 447.91
  C 897.67 446.48 899.13 444.81 900.58 443.67
  Q 910.63 435.87 922.66 438.60
  C 934.99 441.39 938.74 451.18 938.70 462.75
  Q 938.64 483.10 938.63 503.64
  A 0.36 0.36 0.0 0 1 938.27 504.00
  L 920.77 504.00
  A 0.26 0.26 0.0 0 1 920.51 503.74
  Q 920.55 485.52 920.58 467.25
  C 920.59 462.74 919.01 457.95 914.88 455.74
  C 909.48 452.87 901.89 455.43 899.73 461.11
  Q 898.84 463.45 898.79 470.55
  Q 898.67 487.14 898.76 503.72
  A 0.27 0.27 0.0 0 1 898.49 504.00
  L 881.24 504.00
  Q 880.68 504.00 880.67 503.43
  Q 880.55 477.14 880.64 469.75
  C 880.72 463.13 879.60 455.86 871.75 454.88
  C 862.55 453.75 859.11 459.53 859.01 467.75
  Q 858.81 485.76 858.77 503.72
  A 0.28 0.28 0.0 0 1 858.49 504.00
  L 841.24 504.00
  Q 840.73 504.00 840.73 503.49
  L 840.74 439.76
  Q 840.74 439.25 841.24 439.25
  L 858.53 439.25
  A 0.28 0.28 0.0 0 1 858.81 439.53
  L 858.81 447.74
  Q 858.80 448.46 859.28 447.92
  Z"
/>
<path fill="#272727" d="
  M 321.28 497.32
  Q 314.41 504.17 304.65 504.90
  C 290.79 505.94 278.80 497.50 280.47 482.47
  C 282.66 462.64 306.59 461.47 321.29 466.60
  Q 321.86 466.80 321.88 466.20
  C 322.43 449.34 300.09 453.48 290.89 457.28
  A 0.45 0.44 69.9 0 1 290.30 457.00
  L 286.05 443.98
  A 0.47 0.46 69.0 0 1 286.30 443.41
  Q 298.78 437.87 312.11 438.41
  C 331.03 439.18 339.66 448.88 339.51 467.75
  Q 339.37 485.49 339.27 503.22
  Q 339.27 503.74 338.75 503.74
  L 322.27 503.75
  Q 321.79 503.75 321.79 503.27
  L 321.77 497.52
  Q 321.76 496.84 321.28 497.32
  Z
  M 320.29 476.67
  C 313.78 474.64 299.25 472.98 298.00 482.49
  C 296.12 496.81 321.64 495.41 322.19 480.63
  Q 322.27 478.58 322.22 478.37
  Q 321.95 477.19 320.29 476.67
  Z"
/>
<path fill="#272727" d="
  M 813.47 466.13
  C 813.31 449.46 792.36 453.32 782.56 457.17
  Q 781.94 457.42 781.73 456.78
  L 777.49 443.80
  A 0.28 0.27 69.1 0 1 777.64 443.46
  Q 787.27 439.22 797.55 438.48
  C 816.27 437.15 830.73 444.02 830.85 465.27
  Q 830.96 484.19 830.83 503.15
  Q 830.83 503.75 830.24 503.75
  L 813.77 503.75
  Q 813.30 503.75 813.30 503.27
  L 813.36 497.49
  Q 813.37 496.44 812.66 497.22
  C 804.52 506.17 789.02 507.59 779.32 500.70
  C 769.68 493.86 769.53 477.97 777.66 470.44
  C 786.25 462.48 801.93 462.83 812.89 466.56
  Q 813.48 466.76 813.47 466.13
  Z
  M 812.90 476.96
  C 805.72 474.50 790.36 472.52 789.46 483.45
  C 788.29 497.54 817.05 494.71 813.50 477.64
  Q 813.39 477.13 812.90 476.96
  Z"
/>
<path fill="#ffffff" d="
  M 723.49 465.98
  A 0.22 0.22 0.0 0 1 723.27 465.76
  L 723.27 465.62
  A 13.58 13.43 -89.9 0 1 736.72 452.06
  L 736.74 452.06
  A 13.58 13.43 -89.9 0 1 750.15 465.66
  L 750.15 465.80
  A 0.22 0.22 0.0 0 1 749.93 466.02
  L 723.49 465.98
  Z"
/>
<ellipse fill="#ffffff" cx="0.00" cy="0.00" transform="translate(447.50,471.21) rotate(90.0)" rx="18.36" ry="15.78"/>
<ellipse fill="#ffffff" cx="0.00" cy="0.00" transform="translate(564.54,471.09) rotate(84.0)" rx="18.26" ry="16.94"/>
<path fill="#ffffff" d="
  M 320.29 476.67
  Q 321.95 477.19 322.22 478.37
  Q 322.27 478.58 322.19 480.63
  C 321.64 495.41 296.12 496.81 298.00 482.49
  C 299.25 472.98 313.78 474.64 320.29 476.67
  Z"
/>
<path fill="#ffffff" d="
  M 812.90 476.96
  Q 813.39 477.13 813.50 477.64
  C 817.05 494.71 788.29 497.54 789.46 483.45
  C 790.36 472.52 805.72 474.50 812.90 476.96
  Z"
/>
</svg>
